<svg xmlns="http://www.w3.org/2000/svg" xmlns:xlink="http://www.w3.org/1999/xlink" width="70" zoomAndPan="magnify" viewBox="0 0 52.5 30.000001" height="40" preserveAspectRatio="xMidYMid meet" version="1.0"><defs><g/><clipPath id="b7bf339308"><path d="M 0.605469 0 L 51.410156 0 L 51.410156 29.03125 L 0.605469 29.03125 Z M 0.605469 0 " clip-rule="nonzero"/></clipPath><clipPath id="47271602e7"><path d="M 1.558594 0.878906 L 50.941406 0.878906 L 50.941406 28.429688 L 1.558594 28.429688 Z M 1.558594 0.878906 " clip-rule="nonzero"/></clipPath></defs><g clip-path="url(#b7bf339308)"><path fill="#ffffff" d="M 0.605469 0 L 51.894531 0 L 51.894531 29.308594 L 0.605469 29.308594 Z M 0.605469 0 " fill-opacity="1" fill-rule="nonzero"/><path fill="#ffffff" d="M 0.605469 0 L 51.894531 0 L 51.894531 29.308594 L 0.605469 29.308594 Z M 0.605469 0 " fill-opacity="1" fill-rule="nonzero"/><path fill="#000000" d="M 0.605469 0 L 51.894531 0 L 51.894531 29.308594 L 0.605469 29.308594 Z M 0.605469 0 " fill-opacity="1" fill-rule="nonzero"/></g><g clip-path="url(#47271602e7)"><path fill="#ffffff" d="M 1.558594 0.878906 L 50.941406 0.878906 L 50.941406 28.429688 L 1.558594 28.429688 Z M 1.558594 0.878906 " fill-opacity="1" fill-rule="nonzero"/></g><g fill="#000000" fill-opacity="1"><g transform="translate(2.966087, 22.490192)"><g><path d="M 4.515625 -16.6875 C 5.785156 -16.6875 6.722656 -16.304688 7.328125 -15.546875 C 7.929688 -14.796875 8.234375 -13.789062 8.234375 -12.53125 L 8.234375 -11.125 L 6.5 -11.125 L 6.5 -12.625 C 6.5 -13.382812 6.34375 -13.972656 6.03125 -14.390625 C 5.726562 -14.804688 5.238281 -15.015625 4.5625 -15.015625 C 3.894531 -15.015625 3.40625 -14.804688 3.09375 -14.390625 C 2.78125 -13.972656 2.625 -13.382812 2.625 -12.625 L 2.625 -3.890625 C 2.625 -3.140625 2.78125 -2.554688 3.09375 -2.140625 C 3.40625 -1.722656 3.894531 -1.515625 4.5625 -1.515625 C 5.238281 -1.515625 5.726562 -1.722656 6.03125 -2.140625 C 6.34375 -2.554688 6.5 -3.140625 6.5 -3.890625 L 6.5 -7.203125 L 4.796875 -7.203125 L 4.796875 -8.859375 L 8.234375 -8.859375 L 8.234375 -3.984375 C 8.234375 -2.722656 7.929688 -1.710938 7.328125 -0.953125 C 6.722656 -0.203125 5.785156 0.171875 4.515625 0.171875 C 3.253906 0.171875 2.316406 -0.203125 1.703125 -0.953125 C 1.097656 -1.710938 0.796875 -2.722656 0.796875 -3.984375 L 0.796875 -12.53125 C 0.796875 -13.164062 0.867188 -13.738281 1.015625 -14.25 C 1.171875 -14.757812 1.398438 -15.195312 1.703125 -15.5625 C 2.015625 -15.925781 2.398438 -16.203125 2.859375 -16.390625 C 3.328125 -16.585938 3.878906 -16.6875 4.515625 -16.6875 Z M 4.515625 -16.6875 "/></g></g></g><g fill="#000000" fill-opacity="1"><g transform="translate(12.007219, 22.490192)"><g><path d="M 0.875 -9.09375 L 5.390625 -9.09375 L 5.390625 -7.4375 L 0.875 -7.4375 Z M 0.875 -9.09375 "/></g></g></g><g fill="#000000" fill-opacity="1"><g transform="translate(18.262838, 22.490192)"><g><path d="M 2.78125 -16.53125 L 2.78125 0 L 0.9375 0 L 0.9375 -16.53125 Z M 2.78125 -16.53125 "/></g></g></g><g fill="#000000" fill-opacity="1"><g transform="translate(21.992598, 22.490192)"><g><path d="M 4.421875 -16.6875 C 5.671875 -16.6875 6.59375 -16.3125 7.1875 -15.5625 C 7.789062 -14.820312 8.09375 -13.820312 8.09375 -12.5625 L 8.09375 -12.109375 L 6.34375 -12.109375 L 6.34375 -12.65625 C 6.34375 -13.40625 6.191406 -13.984375 5.890625 -14.390625 C 5.597656 -14.804688 5.125 -15.015625 4.46875 -15.015625 C 3.800781 -15.015625 3.316406 -14.804688 3.015625 -14.390625 C 2.722656 -13.984375 2.578125 -13.410156 2.578125 -12.671875 C 2.578125 -12.054688 2.710938 -11.519531 2.984375 -11.0625 C 3.265625 -10.613281 3.609375 -10.195312 4.015625 -9.8125 C 4.421875 -9.425781 4.863281 -9.046875 5.34375 -8.671875 C 5.820312 -8.304688 6.265625 -7.898438 6.671875 -7.453125 C 7.085938 -7.015625 7.429688 -6.515625 7.703125 -5.953125 C 7.984375 -5.398438 8.125 -4.738281 8.125 -3.96875 C 8.125 -2.707031 7.816406 -1.703125 7.203125 -0.953125 C 6.597656 -0.203125 5.660156 0.171875 4.390625 0.171875 C 3.117188 0.171875 2.179688 -0.203125 1.578125 -0.953125 C 0.984375 -1.703125 0.6875 -2.707031 0.6875 -3.96875 L 0.6875 -4.90625 L 2.40625 -4.90625 L 2.40625 -3.875 C 2.40625 -3.113281 2.5625 -2.53125 2.875 -2.125 C 3.195312 -1.71875 3.6875 -1.515625 4.34375 -1.515625 C 5 -1.515625 5.484375 -1.71875 5.796875 -2.125 C 6.117188 -2.53125 6.28125 -3.113281 6.28125 -3.875 C 6.28125 -4.488281 6.140625 -5.019531 5.859375 -5.46875 C 5.585938 -5.914062 5.242188 -6.332031 4.828125 -6.71875 C 4.421875 -7.101562 3.984375 -7.476562 3.515625 -7.84375 C 3.046875 -8.21875 2.601562 -8.625 2.1875 -9.0625 C 1.78125 -9.507812 1.4375 -10.007812 1.15625 -10.5625 C 0.882812 -11.125 0.75 -11.789062 0.75 -12.5625 C 0.75 -13.832031 1.046875 -14.835938 1.640625 -15.578125 C 2.242188 -16.316406 3.171875 -16.6875 4.421875 -16.6875 Z M 4.421875 -16.6875 "/></g></g></g><g fill="#000000" fill-opacity="1"><g transform="translate(30.774069, 22.490192)"><g><path d="M 4.421875 -16.6875 C 5.671875 -16.6875 6.59375 -16.3125 7.1875 -15.5625 C 7.789062 -14.820312 8.09375 -13.820312 8.09375 -12.5625 L 8.09375 -12.109375 L 6.34375 -12.109375 L 6.34375 -12.65625 C 6.34375 -13.40625 6.191406 -13.984375 5.890625 -14.390625 C 5.597656 -14.804688 5.125 -15.015625 4.46875 -15.015625 C 3.800781 -15.015625 3.316406 -14.804688 3.015625 -14.390625 C 2.722656 -13.984375 2.578125 -13.410156 2.578125 -12.671875 C 2.578125 -12.054688 2.710938 -11.519531 2.984375 -11.0625 C 3.265625 -10.613281 3.609375 -10.195312 4.015625 -9.8125 C 4.421875 -9.425781 4.863281 -9.046875 5.34375 -8.671875 C 5.820312 -8.304688 6.265625 -7.898438 6.671875 -7.453125 C 7.085938 -7.015625 7.429688 -6.515625 7.703125 -5.953125 C 7.984375 -5.398438 8.125 -4.738281 8.125 -3.96875 C 8.125 -2.707031 7.816406 -1.703125 7.203125 -0.953125 C 6.597656 -0.203125 5.660156 0.171875 4.390625 0.171875 C 3.117188 0.171875 2.179688 -0.203125 1.578125 -0.953125 C 0.984375 -1.703125 0.6875 -2.707031 0.6875 -3.96875 L 0.6875 -4.90625 L 2.40625 -4.90625 L 2.40625 -3.875 C 2.40625 -3.113281 2.5625 -2.53125 2.875 -2.125 C 3.195312 -1.71875 3.6875 -1.515625 4.34375 -1.515625 C 5 -1.515625 5.484375 -1.71875 5.796875 -2.125 C 6.117188 -2.53125 6.28125 -3.113281 6.28125 -3.875 C 6.28125 -4.488281 6.140625 -5.019531 5.859375 -5.46875 C 5.585938 -5.914062 5.242188 -6.332031 4.828125 -6.71875 C 4.421875 -7.101562 3.984375 -7.476562 3.515625 -7.84375 C 3.046875 -8.21875 2.601562 -8.625 2.1875 -9.0625 C 1.78125 -9.507812 1.4375 -10.007812 1.15625 -10.5625 C 0.882812 -11.125 0.75 -11.789062 0.75 -12.5625 C 0.75 -13.832031 1.046875 -14.835938 1.640625 -15.578125 C 2.242188 -16.316406 3.171875 -16.6875 4.421875 -16.6875 Z M 4.421875 -16.6875 "/></g></g></g><g fill="#000000" fill-opacity="1"><g transform="translate(39.555539, 22.490192)"><g><path d="M 2.8125 -3.328125 L 2.171875 0 L 0.46875 0 L 3.640625 -16.53125 L 6.296875 -16.53125 L 9.46875 0 L 7.625 0 L 6.984375 -3.328125 Z M 3.046875 -4.90625 L 6.734375 -4.90625 L 4.859375 -14.453125 Z M 3.046875 -4.90625 "/></g></g></g></svg>