<svg xmlns="http://www.w3.org/2000/svg" xmlns:xlink="http://www.w3.org/1999/xlink" width="70" zoomAndPan="magnify" viewBox="0 0 52.5 30.000001" height="40" preserveAspectRatio="xMidYMid meet" version="1.0"><defs><g/></defs><g fill="#ffffff" fill-opacity="1"><g transform="translate(2.943811, 22.27802)"><g><path d="M 4.46875 -16.53125 C 5.726562 -16.53125 6.65625 -16.15625 7.25 -15.40625 C 7.851562 -14.664062 8.15625 -13.671875 8.15625 -12.421875 L 8.15625 -11.015625 L 6.4375 -11.015625 L 6.4375 -12.515625 C 6.4375 -13.265625 6.28125 -13.84375 5.96875 -14.25 C 5.664062 -14.664062 5.179688 -14.875 4.515625 -14.875 C 3.859375 -14.875 3.375 -14.664062 3.0625 -14.25 C 2.75 -13.84375 2.59375 -13.265625 2.59375 -12.515625 L 2.59375 -3.859375 C 2.59375 -3.109375 2.75 -2.523438 3.0625 -2.109375 C 3.375 -1.703125 3.859375 -1.5 4.515625 -1.5 C 5.179688 -1.5 5.664062 -1.703125 5.96875 -2.109375 C 6.28125 -2.523438 6.4375 -3.109375 6.4375 -3.859375 L 6.4375 -7.140625 L 4.75 -7.140625 L 4.75 -8.765625 L 8.15625 -8.765625 L 8.15625 -3.953125 C 8.15625 -2.703125 7.851562 -1.703125 7.25 -0.953125 C 6.65625 -0.210938 5.726562 0.15625 4.46875 0.15625 C 3.21875 0.15625 2.289062 -0.210938 1.6875 -0.953125 C 1.09375 -1.703125 0.796875 -2.703125 0.796875 -3.953125 L 0.796875 -12.421875 C 0.796875 -13.046875 0.867188 -13.609375 1.015625 -14.109375 C 1.160156 -14.617188 1.382812 -15.050781 1.6875 -15.40625 C 2 -15.769531 2.382812 -16.046875 2.84375 -16.234375 C 3.300781 -16.429688 3.84375 -16.53125 4.46875 -16.53125 Z M 4.46875 -16.53125 "/></g></g></g><g fill="#ffffff" fill-opacity="1"><g transform="translate(11.899649, 22.27802)"><g><path d="M 0.859375 -9 L 5.328125 -9 L 5.328125 -7.375 L 0.859375 -7.375 Z M 0.859375 -9 "/></g></g></g><g fill="#ffffff" fill-opacity="1"><g transform="translate(18.096253, 22.27802)"><g><path d="M 2.765625 -16.375 L 2.765625 0 L 0.9375 0 L 0.9375 -16.375 Z M 2.765625 -16.375 "/></g></g></g><g fill="#ffffff" fill-opacity="1"><g transform="translate(21.790826, 22.27802)"><g><path d="M 4.375 -16.53125 C 5.625 -16.53125 6.539062 -16.160156 7.125 -15.421875 C 7.71875 -14.679688 8.015625 -13.6875 8.015625 -12.4375 L 8.015625 -12 L 6.296875 -12 L 6.296875 -12.53125 C 6.296875 -13.28125 6.144531 -13.859375 5.84375 -14.265625 C 5.550781 -14.671875 5.078125 -14.875 4.421875 -14.875 C 3.765625 -14.875 3.285156 -14.671875 2.984375 -14.265625 C 2.691406 -13.859375 2.546875 -13.289062 2.546875 -12.5625 C 2.546875 -11.957031 2.679688 -11.425781 2.953125 -10.96875 C 3.234375 -10.519531 3.570312 -10.101562 3.96875 -9.71875 C 4.375 -9.332031 4.816406 -8.957031 5.296875 -8.59375 C 5.773438 -8.226562 6.21875 -7.828125 6.625 -7.390625 C 7.03125 -6.953125 7.367188 -6.457031 7.640625 -5.90625 C 7.910156 -5.351562 8.046875 -4.691406 8.046875 -3.921875 C 8.046875 -2.679688 7.742188 -1.691406 7.140625 -0.953125 C 6.546875 -0.210938 5.613281 0.15625 4.34375 0.15625 C 3.082031 0.15625 2.15625 -0.210938 1.5625 -0.953125 C 0.96875 -1.691406 0.671875 -2.679688 0.671875 -3.921875 L 0.671875 -4.859375 L 2.390625 -4.859375 L 2.390625 -3.84375 C 2.390625 -3.09375 2.546875 -2.515625 2.859375 -2.109375 C 3.171875 -1.703125 3.648438 -1.5 4.296875 -1.5 C 4.953125 -1.5 5.4375 -1.703125 5.75 -2.109375 C 6.0625 -2.515625 6.21875 -3.09375 6.21875 -3.84375 C 6.21875 -4.445312 6.082031 -4.96875 5.8125 -5.40625 C 5.539062 -5.851562 5.203125 -6.269531 4.796875 -6.65625 C 4.390625 -7.039062 3.953125 -7.414062 3.484375 -7.78125 C 3.015625 -8.144531 2.578125 -8.546875 2.171875 -8.984375 C 1.765625 -9.421875 1.425781 -9.914062 1.15625 -10.46875 C 0.882812 -11.019531 0.75 -11.675781 0.75 -12.4375 C 0.75 -13.707031 1.046875 -14.707031 1.640625 -15.4375 C 2.234375 -16.164062 3.144531 -16.53125 4.375 -16.53125 Z M 4.375 -16.53125 "/></g></g></g><g fill="#ffffff" fill-opacity="1"><g transform="translate(30.489453, 22.27802)"><g><path d="M 4.375 -16.53125 C 5.625 -16.53125 6.539062 -16.160156 7.125 -15.421875 C 7.71875 -14.679688 8.015625 -13.6875 8.015625 -12.4375 L 8.015625 -12 L 6.296875 -12 L 6.296875 -12.53125 C 6.296875 -13.28125 6.144531 -13.859375 5.84375 -14.265625 C 5.550781 -14.671875 5.078125 -14.875 4.421875 -14.875 C 3.765625 -14.875 3.285156 -14.671875 2.984375 -14.265625 C 2.691406 -13.859375 2.546875 -13.289062 2.546875 -12.5625 C 2.546875 -11.957031 2.679688 -11.425781 2.953125 -10.96875 C 3.234375 -10.519531 3.570312 -10.101562 3.96875 -9.71875 C 4.375 -9.332031 4.816406 -8.957031 5.296875 -8.59375 C 5.773438 -8.226562 6.21875 -7.828125 6.625 -7.390625 C 7.03125 -6.953125 7.367188 -6.457031 7.640625 -5.90625 C 7.910156 -5.351562 8.046875 -4.691406 8.046875 -3.921875 C 8.046875 -2.679688 7.742188 -1.691406 7.140625 -0.953125 C 6.546875 -0.210938 5.613281 0.15625 4.34375 0.15625 C 3.082031 0.15625 2.15625 -0.210938 1.5625 -0.953125 C 0.96875 -1.691406 0.671875 -2.679688 0.671875 -3.921875 L 0.671875 -4.859375 L 2.390625 -4.859375 L 2.390625 -3.84375 C 2.390625 -3.09375 2.546875 -2.515625 2.859375 -2.109375 C 3.171875 -1.703125 3.648438 -1.5 4.296875 -1.5 C 4.953125 -1.5 5.4375 -1.703125 5.75 -2.109375 C 6.0625 -2.515625 6.21875 -3.09375 6.21875 -3.84375 C 6.21875 -4.445312 6.082031 -4.96875 5.8125 -5.40625 C 5.539062 -5.851562 5.203125 -6.269531 4.796875 -6.65625 C 4.390625 -7.039062 3.953125 -7.414062 3.484375 -7.78125 C 3.015625 -8.144531 2.578125 -8.546875 2.171875 -8.984375 C 1.765625 -9.421875 1.425781 -9.914062 1.15625 -10.46875 C 0.882812 -11.019531 0.75 -11.675781 0.75 -12.4375 C 0.75 -13.707031 1.046875 -14.707031 1.640625 -15.4375 C 2.234375 -16.164062 3.144531 -16.53125 4.375 -16.53125 Z M 4.375 -16.53125 "/></g></g></g><g fill="#ffffff" fill-opacity="1"><g transform="translate(39.188079, 22.27802)"><g><path d="M 2.78125 -3.296875 L 2.15625 0 L 0.46875 0 L 3.609375 -16.375 L 6.25 -16.375 L 9.375 0 L 7.5625 0 L 6.921875 -3.296875 Z M 3.015625 -4.859375 L 6.671875 -4.859375 L 4.8125 -14.3125 Z M 3.015625 -4.859375 "/></g></g></g></svg>